Coordinates
version=1
nRows=10
nColumns=40
inDegrees=yes

Units are S.I. units (second, meters, Newtons, ...)
Angles are in degrees.

endheader
time	pelvis_tilt	pelvis_list	pelvis_rotation	pelvis_tx	pelvis_ty	pelvis_tz	hip_flexion_r	hip_adduction_r	hip_rotation_r	knee_angle_r	knee_angle_r_beta	ankle_angle_r	subtalar_angle_r	mtp_angle_r	hip_flexion_l	hip_adduction_l	hip_rotation_l	knee_angle_l	knee_angle_l_beta	ankle_angle_l	subtalar_angle_l	mtp_angle_l	lumbar_extension	lumbar_bending	lumbar_rotation	arm_flex_r	arm_add_r	arm_rot_r	elbow_flex_r	pro_sup_r	wrist_flex_r	wrist_dev_r	arm_flex_l	arm_add_l	arm_rot_l	elbow_flex_l	pro_sup_l	wrist_flex_l	wrist_dev_l
     51.96000000	     -3.69536523	     -4.70017768	      0.04222000	      0.80476839	      0.93197848	      0.51569520	     12.99599466	      3.57569197	    -17.42909473	     14.81869359	     14.81869359	      7.85097096	      4.44555024	     -6.61429559	     27.68557659	    -11.87443683	     -0.81131150	     57.03814367	     57.03814367	     11.75546547	    -18.48639468	     13.81493920	    -10.15600136	      8.25998217	      3.43310056	     23.53350111	    -15.14586731	     -7.08020139	     38.54364218	     45.92881074	      0.00000000	      0.00000000	      7.17072409	     -7.99137536	     -7.51484725	     40.66982638	     45.58782176	      0.00000000	      0.00000000
     51.97321429	     -3.71026038	     -4.65372857	      0.27847016	      0.80340063	      0.93236472	      0.51635858	     12.39624218	      3.65239606	    -17.42157222	     14.39308728	     14.39308728	      8.02655892	      4.33970122	     -6.65764027	     28.34844457	    -11.83970049	     -0.95630857	     54.33716836	     54.33716836	     11.99174449	    -18.47499583	     13.96032345	    -10.12845244	      8.15765875	      3.24480431	     25.53581189	    -15.17134262	     -7.22392985	     39.70634614	     45.90374630	      0.00000000	      0.00000000	      5.65598789	     -7.67639788	     -7.31312402	     39.48957300	     45.54957436	      0.00000000	      0.00000000
     51.98642857	     -3.72480743	     -4.61495935	      0.53179276	      0.80204628	      0.93269336	      0.51691414	     11.78376474	      3.73065522	    -17.49293142	     13.94173515	     13.94173515	      8.21727789	      4.27880458	     -6.72544659	     28.83167483	    -11.75950428	     -1.13386924	     51.33771795	     51.33771795	     12.07398148	    -18.44990296	     14.06177009	    -10.10523014	      8.09917991	      3.04487557	     27.51372176	    -15.15612295	     -7.31734443	     40.90546818	     45.87427849	      0.00000000	      0.00000000	      4.30849210	     -7.38461132	     -6.99844568	     38.04636620	     45.49862252	      0.00000000	      0.00000000
     51.99964286	     -3.78179623	     -4.62903071	      0.75308442	      0.80067652	      0.93280860	      0.51745017	     11.27380207	      3.84666685	    -17.56285436	     13.58487787	     13.58487787	      8.41950690	      4.24813661	     -6.81500921	     29.23415751	    -11.67975007	     -1.27124634	     48.16383230	     48.16383230	     12.13624919	    -18.31210564	     14.19110261	    -10.03966433	      8.05151615	      3.02467254	     29.41626150	    -15.33695272	     -7.41068321	     42.00459754	     45.84865290	      0.00000000	      0.00000000	      3.03280167	     -6.98646134	     -6.65701241	     36.65994737	     45.44258287	      0.00000000	      0.00000000
     52.01285714	     -3.72432297	     -4.65573373	      1.05964953	      0.79944204	      0.93307660	      0.51772077	     10.57501260	      3.97388161	    -17.72920054	     13.10080355	     13.10080355	      8.56174573	      4.30866721	     -6.94450621	     29.35571693	    -11.51626177	     -1.35617334	     44.75194405	     44.75194405	     11.99849875	    -18.11849663	     14.10588340	    -10.10115277	      8.14954848	      2.69075536	     31.26137880	    -15.16336639	     -7.44503847	     43.36016621	     45.80864373	      0.00000000	      0.00000000	      1.97239912	     -6.81101804	     -6.07951691	     34.52577390	     45.36207357	      0.00000000	      0.00000000
     52.02607143	     -3.77930135	     -4.73435005	      1.29998664	      0.79819577	      0.93299526	      0.51798469	     10.04735475	      4.12589965	    -17.97946680	     12.70092484	     12.70092484	      8.63024046	      4.52988990	     -7.48933184	     29.48081723	    -11.41454336	     -1.52528469	     41.19293906	     41.19293906	     11.23780274	    -17.84377117	     12.38277053	     -9.97022314	      8.23497821	      3.18167380	     32.44602174	    -15.74456479	     -7.57626019	     45.14902156	     45.75068662	      0.00000000	      0.00000000	      2.07580861	     -6.44630820	     -4.27573273	     30.47219077	     45.16332842	      0.00000000	      0.00000000
     52.03928571	     -3.80819067	     -4.73908776	      1.52902302	      0.79694496	      0.93294672	      0.51807320	      9.57056069	      4.18830128	    -18.06236554	     12.45277119	     12.45277119	      8.86321046	      4.48336644	     -7.53340437	     29.55656698	    -11.16012335	     -1.63331875	     37.74364344	     37.74364344	     11.21947382	    -17.18042813	     12.66204831	     -9.93494913	      8.20352124	      3.18401162	     34.01250140	    -15.85647185	     -7.69149326	     46.22340652	     45.72488564	      0.00000000	      0.00000000	      0.84318899	     -6.19084123	     -4.00310396	     29.68245675	     45.11083151	      0.00000000	      0.00000000
     52.05250000	     -3.80859575	     -4.80079806	      1.78801837	      0.79575469	      0.93284506	      0.51800282	      9.02568690	      4.30174060	    -18.24826450	     12.13674059	     12.13674059	      9.10217231	      4.62687126	     -7.60223732	     29.57273116	    -10.92251410	     -1.68594616	     34.33755171	     34.33755171	     11.13619136	    -16.25742858	     12.69493759	     -9.93127116	      8.25657429	      2.97283074	     35.52286346	    -15.76616682	     -7.76472979	     47.49439653	     45.68911009	      0.00000000	      0.00000000	     -0.31565410	     -6.04608617	     -3.60974620	     28.62692638	     45.04233094	      0.00000000	      0.00000000
     52.06571429	     -3.85002728	     -4.98211796	      2.08946287	      0.79461068	      0.93254972	      0.51777197	      8.46643156	      4.51955767	    -18.73525800	     11.70974809	     11.70974809	      9.30669215	      5.20181513	     -7.75074539	     29.64840414	    -10.78896137	     -1.70546837	     31.04558226	     31.04558226	     10.58489282	    -15.10217144	     11.43810476	     -9.85349415	      8.45943798	      2.83851915	     36.66840916	    -15.79956931	     -7.84299495	     49.50499503	     45.62394495	      0.00000000	      0.00000000	     -1.12435515	     -5.87796549	     -2.39818831	     26.90435747	     44.86823726	      0.00000000	      0.00000000
     52.07892857	     -3.91302491	     -5.02264926	      2.33591607	      0.79337860	      0.93223998	      0.51748773	      8.07227287	      4.58232192	    -18.83678717	     11.54641735	     11.54641735	      9.59467087	      5.20058991	     -7.83492242	     29.71212466	    -10.52666017	     -1.85911843	     27.95533159	     27.95533159	     10.54383086	    -13.51323144	     11.54629668	     -9.76239645	      8.44662026	      2.93541000	     37.85662464	    -15.97102113	     -7.92323516	     50.42415321	     45.60075602	      0.00000000	      0.00000000	     -2.09683325	     -5.71469159	     -2.12559688	     26.34688014	     44.81403621	      0.00000000	      0.00000000
